<?xml version="1.0" encoding="UTF-8"?>
<svg version="1.1" xmlns="http://www.w3.org/2000/svg" width="48" height="48">
<path d="M0 0 C10.56 0 21.12 0 32 0 C32.99 4.29 33.98 8.58 35 13 C35.99 13.66 36.98 14.32 38 15 C38 16.32 38 17.64 38 19 C37.01 19.66 36.02 20.32 35 21 C34.01 25.29 33.02 29.58 32 34 C21.44 34 10.88 34 0 34 C-0.99 29.71 -1.98 25.42 -3 21 C-3.99 20.34 -4.98 19.68 -6 19 C-6 17.68 -6 16.36 -6 15 C-5.01 14.34 -4.02 13.68 -3 13 C-2.01 8.71 -1.02 4.42 0 0 Z " fill="#7B4DFF" transform="translate(8,7)"/>
<path d="M0 0 C8.3984375 -0.1953125 8.3984375 -0.1953125 11 0 C13 2 13 2 13.125 4.5 C13.08375 5.325 13.0425 6.15 13 7 C13 7.66 13 8.32 13 9 C13.33 9.33 13.66 9.66 14 10 C14.25 12.9375 14.25 12.9375 14 16 C9.43362969 19.04424687 5.43284541 18.12783166 0 18 C0 12.06 0 6.12 0 0 Z " fill="#F2EEFF" transform="translate(17,15)"/>
<path d="M0 0 C2.31 0 4.62 0 7 0 C7.33 1.65 7.66 3.3 8 5 C5.29120665 6.35439668 2.99066732 6.06501451 0 6 C0 4.02 0 2.04 0 0 Z " fill="#8A60FF" transform="translate(20,25)"/>
<path d="M0 0 C1.98 0 3.96 0 6 0 C6.33 1.65 6.66 3.3 7 5 C4.69 5.33 2.38 5.66 0 6 C0 4.02 0 2.04 0 0 Z " fill="#916AFF" transform="translate(20,17)"/>
</svg>
