<?xml version="1.0" encoding="UTF-8"?>
<svg version="1.1" xmlns="http://www.w3.org/2000/svg" width="48" height="48">
<path d="M0 0 C11.22 0 22.44 0 34 0 C34 13.5 34 13.5 33.5625 17.984375 C33.42714844 19.41523437 33.42714844 19.41523437 33.2890625 20.875 C33.14597656 22.298125 33.14597656 22.298125 33 23.75 C32.90460937 24.74515625 32.80921875 25.7403125 32.7109375 26.765625 C32.47901461 29.17762304 32.24200146 31.58899606 32 34 C30.72942818 34.47985967 29.45853152 34.9588593 28.1875 35.4375 C27.47980469 35.70433594 26.77210937 35.97117188 26.04296875 36.24609375 C17.80747209 39.28519672 11.0488908 38.0281402 3 35 C0.60195757 32.60195757 1.22306051 26.92596771 0.9375 23.6875 C0.84662109 22.74326172 0.75574219 21.79902344 0.66210938 20.82617188 C0.02782833 13.80139009 0 7.11390302 0 0 Z " fill="#0377BD" transform="translate(7,5)"/>
<path d="M0 0 C5.94 0 11.88 0 18 0 C17.67 6.6 17.34 13.2 17 20 C6.42857143 22.57142857 6.42857143 22.57142857 1 20 C1 18.02 1 16.04 1 14 C2.32 14 3.64 14 5 14 C5 14.99 5 15.98 5 17 C7.64 17 10.28 17 13 17 C13 15.35 13 13.7 13 12 C10.36 12 7.72 12 5 12 C5 10.68 5 9.36 5 8 C7.97 8 10.94 8 14 8 C14 6.68 14 5.36 14 4 C9.38 4 4.76 4 0 4 C0 2.68 0 1.36 0 0 Z " fill="#F7FBFC" transform="translate(15,13)"/>
<path d="M0 0 C4.62 0 9.24 0 14 0 C13.34 9.24 12.68 18.48 12 28 C4.125 31.375 4.125 31.375 0 32 C0 30.35 0 28.7 0 27 C3.08809695 25.23537317 4.23312136 25 8 25 C7.98839844 24.14277344 7.97679687 23.28554688 7.96484375 22.40234375 C7.9181959 16.49139448 7.91750084 10.81843296 9 5 C6.03 5 3.06 5 0 5 C0 3.35 0 1.7 0 0 Z " fill="#099CE4" transform="translate(24,8)"/>
<path d="M0 0 C1.32 0 2.64 0 4 0 C4 0.99 4 1.98 4 3 C5.32 3.33 6.64 3.66 8 4 C8 5.32 8 6.64 8 8 C5.36 7.34 2.72 6.68 0 6 C0 4.02 0 2.04 0 0 Z " fill="#E2E8EB" transform="translate(16,27)"/>
<path d="M0 0 C2.97 0 5.94 0 9 0 C9 1.32 9 2.64 9 4 C6.03 4 3.06 4 0 4 C0 2.68 0 1.36 0 0 Z " fill="#EDEDED" transform="translate(15,13)"/>
<path d="M0 0 C1.32 0 2.64 0 4 0 C4 1.65 4 3.3 4 5 C2.02 5.33 0.04 5.66 -2 6 C-1.34 5.67 -0.68 5.34 0 5 C0 3.35 0 1.7 0 0 Z " fill="#129FE4" transform="translate(24,25)"/>
<path d="M0 0 C1.65 0 3.3 0 5 0 C5 1.32 5 2.64 5 4 C3.35 4 1.7 4 0 4 C0 2.68 0 1.36 0 0 Z " fill="#0FA0E6" transform="translate(24,17)"/>
</svg>
