<?xml version="1.0" encoding="UTF-8"?>
<svg version="1.1" xmlns="http://www.w3.org/2000/svg" width="48" height="48">
<path d="M0 0 C11.22 0 22.44 0 34 0 C34 13.5 34 13.5 33.5625 17.984375 C33.42714844 19.41523437 33.42714844 19.41523437 33.2890625 20.875 C33.14597656 22.298125 33.14597656 22.298125 33 23.75 C32.90460937 24.74515625 32.80921875 25.7403125 32.7109375 26.765625 C32.47901461 29.17762304 32.24200146 31.58899606 32 34 C30.72942818 34.47985967 29.45853152 34.9588593 28.1875 35.4375 C27.47980469 35.70433594 26.77210937 35.97117188 26.04296875 36.24609375 C17.80747209 39.28519672 11.0488908 38.0281402 3 35 C0.60195757 32.60195757 1.22306051 26.92596771 0.9375 23.6875 C0.84662109 22.74326172 0.75574219 21.79902344 0.66210938 20.82617188 C0.02782833 13.80139009 0 7.11390302 0 0 Z " fill="#E65100" transform="translate(7,5)"/>
<path d="M0 0 C4.29 0 8.58 0 13 0 C12.67 9.24 12.34 18.48 12 28 C4.125 31.375 4.125 31.375 0 32 C0 30.35 0 28.7 0 27 C-2.64 26.34 -5.28 25.68 -8 25 C-8 23.02 -8 21.04 -8 19 C-6.68 19 -5.36 19 -4 19 C-4 19.99 -4 20.98 -4 22 C-1.36 22 1.28 22 4 22 C4 20.35 4 18.7 4 17 C-0.29 17 -4.58 17 -9 17 C-9 13.04 -9 9.08 -9 5 C-6.03 5 -3.06 5 0 5 C0 3.35 0 1.7 0 0 Z " fill="#FE6F05" transform="translate(24,8)"/>
<path d="M0 0 C5.94 0 11.88 0 18 0 C18 1.32 18 2.64 18 4 C13.38 4 8.76 4 4 4 C4 5.32 4 6.64 4 8 C8.29 8 12.58 8 17 8 C17 11.96 17 15.92 17 20 C6.42857143 22.57142857 6.42857143 22.57142857 1 20 C1 18.02 1 16.04 1 14 C2.32 14 3.64 14 5 14 C5 14.99 5 15.98 5 17 C7.64 17 10.28 17 13 17 C13 15.35 13 13.7 13 12 C8.71 12 4.42 12 0 12 C0 8.04 0 4.08 0 0 Z " fill="#EDE8E5" transform="translate(15,13)"/>
<path d="M0 0 C2.64 0 5.28 0 8 0 C8 3.96 8 7.92 8 12 C-2.57142857 14.57142857 -2.57142857 14.57142857 -8 12 C-8 10.02 -8 8.04 -8 6 C-6.68 6 -5.36 6 -4 6 C-4 6.99 -4 7.98 -4 9 C-1.36 9 1.28 9 4 9 C4 7.35 4 5.7 4 4 C2.68 4 1.36 4 0 4 C0 2.68 0 1.36 0 0 Z " fill="#FFFBF9" transform="translate(24,21)"/>
<path d="M0 0 C1.32 0 2.64 0 4 0 C4 0.99 4 1.98 4 3 C5.32 3.33 6.64 3.66 8 4 C8 5.32 8 6.64 8 8 C5.36 7.34 2.72 6.68 0 6 C0 4.02 0 2.04 0 0 Z " fill="#EDE5E1" transform="translate(16,27)"/>
<path d="M0 0 C2.97 0 5.94 0 9 0 C9 1.32 9 2.64 9 4 C6.03 4 3.06 4 0 4 C0 2.68 0 1.36 0 0 Z " fill="#FFFEFE" transform="translate(24,13)"/>
<path d="M0 0 C1.32 0 2.64 0 4 0 C4 1.65 4 3.3 4 5 C2.02 5.33 0.04 5.66 -2 6 C-1.34 5.67 -0.68 5.34 0 5 C0 3.35 0 1.7 0 0 Z " fill="#FD7715" transform="translate(24,25)"/>
<path d="M0 0 C1.65 0 3.3 0 5 0 C5 1.32 5 2.64 5 4 C3.35 4 1.7 4 0 4 C0 2.68 0 1.36 0 0 Z " fill="#E6580B" transform="translate(19,17)"/>
</svg>
